<svg id="visual" viewBox="0 0 900 600" width="900" height="600" xmlns="http://www.w3.org/2000/svg" xmlns:xlink="http://www.w3.org/1999/xlink" version="1.1"><path d="M0 43L16.7 46C33.3 49 66.7 55 100 58C133.3 61 166.7 61 200 61C233.3 61 266.7 61 300 58C333.3 55 366.7 49 400 46C433.3 43 466.7 43 500 43C533.3 43 566.7 43 600 43C633.3 43 666.7 43 700 43C733.3 43 766.7 43 800 43C833.3 43 866.7 43 883.3 43L900 43L900 0L883.3 0C866.7 0 833.3 0 800 0C766.7 0 733.3 0 700 0C666.7 0 633.3 0 600 0C566.7 0 533.3 0 500 0C466.7 0 433.3 0 400 0C366.7 0 333.3 0 300 0C266.7 0 233.3 0 200 0C166.7 0 133.3 0 100 0C66.7 0 33.3 0 16.7 0L0 0Z" fill="#ebebeb"></path><path d="M0 85L16.7 87C33.3 89 66.7 93 100 94C133.3 95 166.7 93 200 92C233.3 91 266.7 91 300 88C333.3 85 366.7 79 400 77C433.3 75 466.7 77 500 78C533.3 79 566.7 79 600 78C633.3 77 666.7 75 700 76C733.3 77 766.7 81 800 83C833.3 85 866.7 85 883.3 85L900 85L900 41L883.3 41C866.7 41 833.3 41 800 41C766.7 41 733.3 41 700 41C666.7 41 633.3 41 600 41C566.7 41 533.3 41 500 41C466.7 41 433.3 41 400 44C366.7 47 333.3 53 300 56C266.7 59 233.3 59 200 59C166.7 59 133.3 59 100 56C66.7 53 33.3 47 16.7 44L0 41Z" fill="#d8dbe6"></path><path d="M0 139L16.7 144C33.3 149 66.7 159 100 159C133.3 159 166.7 149 200 145C233.3 141 266.7 143 300 144C333.3 145 366.7 145 400 145C433.3 145 466.7 145 500 144C533.3 143 566.7 141 600 141C633.3 141 666.7 143 700 145C733.3 147 766.7 149 800 150C833.3 151 866.7 151 883.3 151L900 151L900 83L883.3 83C866.7 83 833.3 83 800 81C766.7 79 733.3 75 700 74C666.7 73 633.3 75 600 76C566.7 77 533.3 77 500 76C466.7 75 433.3 73 400 75C366.7 77 333.3 83 300 86C266.7 89 233.3 89 200 90C166.7 91 133.3 93 100 92C66.7 91 33.3 87 16.7 85L0 83Z" fill="#c4cce2"></path><path d="M0 169L16.7 174C33.3 179 66.7 189 100 189C133.3 189 166.7 179 200 176C233.3 173 266.7 177 300 178C333.3 179 366.7 177 400 176C433.3 175 466.7 175 500 174C533.3 173 566.7 171 600 171C633.3 171 666.7 173 700 175C733.3 177 766.7 179 800 181C833.3 183 866.7 185 883.3 186L900 187L900 149L883.3 149C866.7 149 833.3 149 800 148C766.7 147 733.3 145 700 143C666.7 141 633.3 139 600 139C566.7 139 533.3 141 500 142C466.7 143 433.3 143 400 143C366.7 143 333.3 143 300 142C266.7 141 233.3 139 200 143C166.7 147 133.3 157 100 157C66.7 157 33.3 147 16.7 142L0 137Z" fill="#b0bddd"></path><path d="M0 247L16.7 253C33.3 259 66.7 271 100 274C133.3 277 166.7 271 200 266C233.3 261 266.7 257 300 256C333.3 255 366.7 257 400 260C433.3 263 466.7 267 500 265C533.3 263 566.7 255 600 250C633.3 245 666.7 243 700 245C733.3 247 766.7 253 800 256C833.3 259 866.7 259 883.3 259L900 259L900 185L883.3 184C866.7 183 833.3 181 800 179C766.7 177 733.3 175 700 173C666.7 171 633.3 169 600 169C566.7 169 533.3 171 500 172C466.7 173 433.3 173 400 174C366.7 175 333.3 177 300 176C266.7 175 233.3 171 200 174C166.7 177 133.3 187 100 187C66.7 187 33.3 177 16.7 172L0 167Z" fill="#9caed8"></path><path d="M0 289L16.7 294C33.3 299 66.7 309 100 312C133.3 315 166.7 311 200 307C233.3 303 266.7 299 300 297C333.3 295 366.7 295 400 298C433.3 301 466.7 307 500 306C533.3 305 566.7 297 600 292C633.3 287 666.7 285 700 286C733.3 287 766.7 291 800 292C833.3 293 866.7 291 883.3 290L900 289L900 257L883.3 257C866.7 257 833.3 257 800 254C766.7 251 733.3 245 700 243C666.7 241 633.3 243 600 248C566.7 253 533.3 261 500 263C466.7 265 433.3 261 400 258C366.7 255 333.3 253 300 254C266.7 255 233.3 259 200 264C166.7 269 133.3 275 100 272C66.7 269 33.3 257 16.7 251L0 245Z" fill="#879fd3"></path><path d="M0 427L16.7 434C33.3 441 66.7 455 100 457C133.3 459 166.7 449 200 446C233.3 443 266.7 447 300 449C333.3 451 366.7 451 400 452C433.3 453 466.7 455 500 447C533.3 439 566.7 421 600 414C633.3 407 666.7 411 700 415C733.3 419 766.7 423 800 424C833.3 425 866.7 423 883.3 422L900 421L900 287L883.3 288C866.7 289 833.3 291 800 290C766.7 289 733.3 285 700 284C666.7 283 633.3 285 600 290C566.7 295 533.3 303 500 304C466.7 305 433.3 299 400 296C366.7 293 333.3 293 300 295C266.7 297 233.3 301 200 305C166.7 309 133.3 313 100 310C66.7 307 33.3 297 16.7 292L0 287Z" fill="#7091ce"></path><path d="M0 553L16.7 555C33.3 557 66.7 561 100 563C133.3 565 166.7 565 200 563C233.3 561 266.7 557 300 555C333.3 553 366.7 553 400 554C433.3 555 466.7 557 500 558C533.3 559 566.7 559 600 560C633.3 561 666.7 563 700 564C733.3 565 766.7 565 800 565C833.3 565 866.7 565 883.3 565L900 565L900 419L883.3 420C866.7 421 833.3 423 800 422C766.7 421 733.3 417 700 413C666.7 409 633.3 405 600 412C566.7 419 533.3 437 500 445C466.7 453 433.3 451 400 450C366.7 449 333.3 449 300 447C266.7 445 233.3 441 200 444C166.7 447 133.3 457 100 455C66.7 453 33.3 439 16.7 432L0 425Z" fill="#5783c9"></path><path d="M0 601L16.7 601C33.3 601 66.7 601 100 601C133.3 601 166.7 601 200 601C233.3 601 266.7 601 300 601C333.3 601 366.7 601 400 601C433.3 601 466.7 601 500 601C533.3 601 566.7 601 600 601C633.3 601 666.7 601 700 601C733.3 601 766.7 601 800 601C833.3 601 866.7 601 883.3 601L900 601L900 563L883.3 563C866.7 563 833.3 563 800 563C766.7 563 733.3 563 700 562C666.7 561 633.3 559 600 558C566.7 557 533.3 557 500 556C466.7 555 433.3 553 400 552C366.7 551 333.3 551 300 553C266.7 555 233.3 559 200 561C166.7 563 133.3 563 100 561C66.7 559 33.3 555 16.7 553L0 551Z" fill="#3875c4"></path></svg>